<svg width="23" height="22" viewBox="0 0 23 22" fill="none" xmlns="http://www.w3.org/2000/svg">
<path d="M5.21578 7.14941H0.275716V22H5.21578V7.14941Z" fill="black"/>
<path d="M21.4376 8.50559C20.4036 7.37916 19.025 6.80444 17.3247 6.80444C16.7043 6.80444 16.1299 6.87341 15.6014 7.03433C15.0959 7.19525 14.6593 7.40214 14.2917 7.67801C13.947 7.95387 13.6483 8.20674 13.4416 8.45962C13.2348 8.6895 13.0509 8.94237 12.8671 9.24123V7.12628H7.95004L7.97302 7.83893C7.97302 8.32168 7.996 9.79295 7.996 12.2757C7.996 14.7585 7.996 17.9769 7.97302 21.9769H12.8901V13.701C12.8901 13.1952 12.9361 12.7815 13.0509 12.4826C13.2577 11.9769 13.5794 11.5401 13.993 11.1952C14.4066 10.8504 14.9351 10.6895 15.5784 10.6895C16.4286 10.6895 17.0719 10.9884 17.4625 11.5861C17.8761 12.1838 18.0599 13.0113 18.0599 14.0458V21.9769H22.977V13.4711C23 11.2872 22.4945 9.63203 21.4376 8.50559Z" fill="black"/>
<path d="M2.78022 0C1.95305 0 1.28671 0.252874 0.781219 0.735632C0.252747 1.21839 0 1.81609 0 2.55172C0 3.28736 0.252747 3.88506 0.758242 4.39081C1.26374 4.87356 1.90709 5.12644 2.73427 5.12644H2.75724C3.60739 5.12644 4.27373 4.87356 4.77922 4.39081C5.28472 3.90805 5.53746 3.28736 5.53746 2.55172C5.53746 1.81609 5.26174 1.1954 4.77922 0.712644C4.27373 0.252874 3.60739 0 2.78022 0Z" fill="black"/>
</svg>
