<svg width="29" height="20" viewBox="0 0 29 20" fill="none" xmlns="http://www.w3.org/2000/svg">
<path d="M27.9856 7.64988C27.9856 7.09832 27.9376 6.3789 27.8417 5.51559C27.7698 4.65228 27.6499 3.88489 27.506 3.21343C27.3381 2.44604 26.9784 1.82254 26.4269 1.29496C25.8753 0.767386 25.2278 0.479616 24.4844 0.383693C22.1823 0.119904 18.6811 0 14.0048 0C9.32854 0 5.82734 0.119904 3.52518 0.383693C2.78177 0.479616 2.13429 0.767386 1.58273 1.29496C1.03118 1.82254 0.671463 2.44604 0.503597 3.21343C0.335731 3.88489 0.239808 4.65228 0.143885 5.51559C0.0719424 6.3789 0.0239808 7.09832 0 7.64988C0 8.22542 0 8.99281 0 10C0 11.0072 0 11.7746 0.0239808 12.3501C0.0239808 12.9017 0.0719424 13.6211 0.167866 14.4844C0.215827 15.3477 0.335731 16.1151 0.479616 16.7866C0.647482 17.554 1.00719 18.1775 1.55875 18.705C2.11031 19.2326 2.75779 19.5204 3.5012 19.6163C5.80336 19.8801 9.30456 20 13.9808 20C18.6571 20 22.1583 19.8801 24.4604 19.6163C25.2038 19.5444 25.8513 19.2326 26.4029 18.705C26.9544 18.1775 27.3141 17.554 27.482 16.7866C27.6499 16.1151 27.7458 15.3477 27.8417 14.4844C27.9137 13.6211 27.9616 12.9017 27.9856 12.3501C27.9856 11.7986 28.0096 11.0072 28.0096 10C28.0096 8.99281 28.0096 8.22542 27.9856 7.64988ZM19.5444 10.8393L11.5348 15.8513C11.3909 15.9472 11.223 16.0192 11.0072 16.0192C10.8393 16.0192 10.6954 15.9712 10.5276 15.8993C10.1918 15.7074 10 15.4197 10 15.012V5.01199C10 4.60432 10.1679 4.31655 10.5276 4.1247C10.8873 3.93285 11.223 3.95683 11.5348 4.14868L15.5396 6.65468L19.5444 9.16067C19.8561 9.32854 20.024 9.61631 20.024 10C20 10.3837 19.8561 10.6715 19.5444 10.8393Z" fill="black"/>
</svg>
